<?xml version="1.0"?>
<svg xmlns="http://www.w3.org/2000/svg" xmlns:xlink="http://www.w3.org/1999/xlink" xmlns:svgjs="http://svgjs.com/svgjs" version="1.1" width="512" height="512" x="0" y="0" viewBox="0 0 509.462 509.462" style="enable-background:new 0 0 512 512" xml:space="preserve" class=""><g><g xmlns="http://www.w3.org/2000/svg" id="XMLID_357_"><path id="XMLID_366_" d="m203.766 90-54.035 38.596v134.864c0 67.823 41.984 128.3 105 152.096 63.017-23.796 105-84.272 105-152.096v-134.864l-54.034-38.596zm40.359 201.213-48.861-48.861 21.213-21.213 27.648 27.648 49.682-49.682 21.214 21.213z" fill="#ffffff" data-original="#000000" class=""/><path id="XMLID_370_" d="m133.458 103.353 60.694-43.353h121.158l60.693 43.353 60-30.877-101.465-72.476h-159.615l-101.465 72.476z" fill="#ffffff" data-original="#000000" class=""/><path id="XMLID_371_" d="m389.731 130.027v133.433c0 82.379-52.302 155.611-130.148 182.228l-4.852 1.659-4.853-1.659c-77.846-26.616-130.147-99.848-130.147-182.228v-133.433l-60-30.877v164.31c0 116.139 78.69 216.924 191.361 245.092l3.639.91 3.638-.91c112.672-28.168 191.362-128.953 191.362-245.092v-164.31z" fill="#ffffff" data-original="#000000" class=""/></g></g></svg>
